<?xml version="1.0" encoding="UTF-8" standalone="no"?>
<!-- Created with Inkscape (http://www.inkscape.org/) -->

<svg
   xmlns:dc="http://purl.org/dc/elements/1.1/"
   xmlns:cc="http://creativecommons.org/ns#"
   xmlns:rdf="http://www.w3.org/1999/02/22-rdf-syntax-ns#"
   xmlns:svg="http://www.w3.org/2000/svg"
   xmlns="http://www.w3.org/2000/svg"
   xmlns:sodipodi="http://sodipodi.sourceforge.net/DTD/sodipodi-0.dtd"
   xmlns:inkscape="http://www.inkscape.org/namespaces/inkscape"
   version="1.1"
   id="svg3748"
   width="910"
   height="910"
   viewBox="0 0 910 910"
   sodipodi:docname="image_logo.svg"
   inkscape:version="0.92.4 (5da689c313, 2019-01-14)">
  <metadata
     id="metadata3754">
    <rdf:RDF>
      <cc:Work
         rdf:about="">
        <dc:format>image/svg+xml</dc:format>
        <dc:type
           rdf:resource="http://purl.org/dc/dcmitype/StillImage" />
        <dc:title />
      </cc:Work>
    </rdf:RDF>
  </metadata>
  <defs
     id="defs3752" />
  <sodipodi:namedview
     pagecolor="#ffffff"
     bordercolor="#666666"
     borderopacity="1"
     objecttolerance="10"
     gridtolerance="10"
     guidetolerance="10"
     inkscape:pageopacity="0"
     inkscape:pageshadow="2"
     inkscape:window-width="1920"
     inkscape:window-height="1016"
     id="namedview3750"
     showgrid="false"
     inkscape:zoom="0.37956767"
     inkscape:cx="831.98672"
     inkscape:cy="35.7578"
     inkscape:window-x="0"
     inkscape:window-y="34"
     inkscape:window-maximized="1"
     inkscape:current-layer="svg3748" />
  <path
     style="fill:#ffffff;fill-opacity:1;stroke-width:0.73311132"
     d="m 479.40937,837.96412 c -0.25739,-0.67028 -0.46739,-42.25801 -0.46739,-92.41715 v -91.19851 l 1.64948,-0.36367 c 0.90723,-0.20039 4.94849,-0.90049 8.9806,-1.55637 35.77123,-5.81873 69.29495,-22.8275 95.94506,-48.67922 30.21469,-29.30957 49.27093,-67.31023 56.29408,-112.25768 2.22859,-14.26241 2.44173,-48.7913 0.38671,-62.60272 -5.43956,-36.55363 -18.08598,-67.53267 -38.85475,-95.1801 -7.64125,-10.17184 -22.8399,-25.77232 -32.02892,-32.87557 -25.97624,-20.07999 -55.03919,-32.62954 -86.32388,-37.27514 l -6.04812,-0.89813 0.0126,-91.366 c 0.007,-50.25133 0.25354,-91.73169 0.54998,-92.1786 0.29643,-0.44688 1.19841,-0.67782 2.00487,-0.51283 1.53578,0.31372 2.03543,0.37326 17.96121,2.13952 58.60316,6.50002 118.5706,28.55243 168.249,61.87176 34.3502,23.03878 66.3151,53.199 91.2898,86.13605 40.57689,53.51347 67.85196,121.71104 75.05975,187.67643 8.29818,75.94395 -5.38712,150.03266 -40.15093,217.36767 -17.35425,33.61373 -38.21847,62.37935 -65.26855,89.98586 -63.94744,65.26273 -145.01475,104.37403 -235.04396,113.39798 -5.84657,0.58582 -11.32686,1.27703 -12.17852,1.53551 -1.07145,0.32525 -1.69244,0.0947 -2.01602,-0.74864 z"
     id="path838"
     inkscape:connector-curvature="0" />
  <path
     style="fill:#3d5aed;fill-opacity:1;stroke-width:0.73311132"
     d="M 428.35701,837.83607 C 317.95451,829.82967 217.91028,775.08434 151.27019,686.21086 107.97544,628.47152 83.514989,563.89221 77.130026,490.47 c -1.140029,-13.10835 -1.156421,-49.08358 -0.02561,-61.94794 7.145963,-81.49154 36.346124,-152.44749 88.698054,-215.5347 9.34055,-11.25599 34.90678,-36.77394 46.28947,-46.20215 41.55228,-34.41729 87.36036,-58.59642 140.02429,-73.90974 24.03167,-6.98776 46.27833,-10.90213 77.16287,-13.57684 l 4.21815,-0.36558 -0.18631,91.75603 -0.1863,91.75609 -6.03784,0.85814 c -31.09843,4.4199 -62.12638,17.9626 -87.43383,38.16188 -7.77539,6.206 -20.94252,19.2741 -27.11389,26.90997 -15.15403,18.75019 -28.39198,43.87291 -35.50208,67.37529 -6.02003,19.89899 -8.39522,35.2645 -8.97548,58.06368 -0.64122,25.19252 2.4218,48.06796 9.32545,69.64561 23.0289,71.97774 79.97656,120.66348 152.62195,130.4798 l 3.48231,0.47059 v 91.96064 c 0,73.14798 -0.18759,91.93434 -0.91638,91.83247 -0.50388,-0.0705 -2.40095,-0.2356 -4.21542,-0.36749 z"
     id="path836"
     inkscape:connector-curvature="0" />
</svg>
