<svg xmlns="http://www.w3.org/2000/svg" viewBox="0 0 100 18"><path fill="#fff" d="M2.011 16.096l1.46-14.062a.558.558 0 01.297-.304h3.69c.188-.002.3.104.385.249l2.775 9.216 2.8-9.186a.575.575 0 01.311-.28l3.696-.007a.553.553 0 01.369.312l1.464 14.16c.022.23-.052.365-.25.448h-3.1c-.238.002-.36-.124-.403-.337l-.899-7.809-2.256 7.772c-.056.173-.21.367-.38.375l-2.7.007a.65.65 0 01-.324-.29l-2.29-7.859-.89 7.806c-.04.207-.167.323-.39.336l-3.02-.003c-.309.003-.39-.316-.345-.544zM29.424 1.722l-2.798.008a.768.768 0 00-.385.289l-5.505 14.248c-.079.192.021.358.283.374l3.154.002a.456.456 0 00.374-.267l.804-2.102 5.347-.018.81 2.12a.509.509 0 00.306.266l3.236-.002c.232-.021.36-.19.287-.4L29.828 2.088a.699.699 0 00-.404-.366zM28.032 6.43l1.524 4.58-3.056-.007zm9.386-4.7a.483.483 0 00-.282.31l.014 14.298c-.003.134.14.286.292.303l3.214-.001c.212-.005.343-.103.36-.331l.011-4.877 3.505-.02c1.23-.022 3.863-1.405 4.1-4.366a7.21 7.21 0 00-.021-1.091c-.302-2.139-1.796-3.85-3.989-4.199-2.595-.05-7.204-.027-7.204-.027zm3.61 3.178l2.293.012c.832.093 1.358.819 1.375 1.673-.014 1-.666 1.512-1.26 1.659l-2.409.009zM57.83 16.676l-.008-3.717c4.26-.487 4.656-7.13 0-7.92l.01-3.714c3.814.207 7.208 3.389 7.212 7.659.01 5.121-4.378 7.628-7.214 7.692z"/><path d="M56.904 1.324c-3.814.207-7.208 3.389-7.212 7.659-.01 5.122 4.377 7.628 7.213 7.692l.009-3.717c-4.261-.486-4.656-7.13 0-7.92l-.01-3.714zm8.738.406a.526.526 0 00-.326.296l.005 2.733c.017.199.167.393.406.406l3.51.011.013 10.952c.006.304.138.519.488.512l2.932.003a.45.45 0 00.457-.361l.01-11.106 3.463-.008c.302-.008.482-.194.484-.52l-.006-2.53c-.027-.235-.192-.33-.347-.388zm17.419 0l-3.122.003c-.218.005-.306.147-.377.308v14.32c.053.138.126.269.374.282h3.198c.134-.053.285-.152.293-.305l.011-14.275c-.053-.16-.194-.26-.377-.333zm6.342.001c-1.477 0-2.63.006-2.63.006a.483.483 0 00-.281.311l.014 14.297c-.003.135.14.286.292.303l3.213-.001c.212-.005.343-.102.36-.33l.012-4.878 3.504-.02c1.232-.022 3.864-1.405 4.101-4.365.023-.249.01-.866-.022-1.092-.301-2.138-1.795-3.85-3.988-4.198a265.455 265.455 0 00-4.575-.033zm.98 3.185l2.294.011c.831.094 1.358.82 1.375 1.673-.014 1-.666 1.512-1.26 1.659l-2.409.01V4.914z" fill="#3d5aed"/></svg>