<?xml version="1.0" encoding="UTF-8" standalone="no"?>
<!-- Created with Inkscape (http://www.inkscape.org/) -->

<svg
   xmlns:dc="http://purl.org/dc/elements/1.1/"
   xmlns:cc="http://creativecommons.org/ns#"
   xmlns:rdf="http://www.w3.org/1999/02/22-rdf-syntax-ns#"
   xmlns:svg="http://www.w3.org/2000/svg"
   xmlns="http://www.w3.org/2000/svg"
   xmlns:sodipodi="http://sodipodi.sourceforge.net/DTD/sodipodi-0.dtd"
   xmlns:inkscape="http://www.inkscape.org/namespaces/inkscape"
   version="1.1"
   id="svg10"
   width="750"
   height="150"
   viewBox="0 0 750 150"
   sodipodi:docname="text_logo.svg"
   inkscape:version="0.92.4 (5da689c313, 2019-01-14)">
  <metadata
     id="metadata16">
    <rdf:RDF>
      <cc:Work
         rdf:about="">
        <dc:format>image/svg+xml</dc:format>
        <dc:type
           rdf:resource="http://purl.org/dc/dcmitype/StillImage" />
        <dc:title />
      </cc:Work>
    </rdf:RDF>
  </metadata>
  <defs
     id="defs14" />
  <sodipodi:namedview
     pagecolor="#ffffff"
     bordercolor="#666666"
     borderopacity="1"
     objecttolerance="10"
     gridtolerance="10"
     guidetolerance="10"
     inkscape:pageopacity="0"
     inkscape:pageshadow="2"
     inkscape:window-width="1920"
     inkscape:window-height="1016"
     id="namedview12"
     showgrid="false"
     inkscape:zoom="0.83969468"
     inkscape:cx="332.17925"
     inkscape:cy="1.7271017"
     inkscape:window-x="0"
     inkscape:window-y="34"
     inkscape:window-maximized="1"
     inkscape:current-layer="svg10"
     showguides="false" />
  <path
     style="fill:#000000;stroke-width:0.11450382"
     d="m 435.30205,138.85113 c -0.0402,-0.10469 -0.073,-6.60023 -0.073,-14.43453 v -14.24418 l 0.25763,-0.0568 c 0.1417,-0.0313 0.7729,-0.14065 1.40267,-0.24309 5.58707,-0.90882 10.8231,-3.5654 14.98555,-7.60315 4.7192,-4.577828 7.69558,-10.513108 8.79252,-17.533398 0.34808,-2.22763 0.38137,-7.62066 0.0604,-9.77785 -0.8496,-5.70927 -2.82484,-10.54785 -6.06869,-14.86607 -1.19348,-1.58873 -3.56734,-4.02535 -5.00256,-5.1348 -4.0572,-3.13627 -8.59651,-5.09637 -13.48283,-5.82196 l -0.94465,-0.14028 0.002,-14.27035 c 0.001,-7.8487 0.0396,-14.32747 0.0859,-14.39727 0.0463,-0.0698 0.18718,-0.10587 0.31314,-0.0801 0.23987,0.049 0.31791,0.0583 2.80534,0.33417 9.15316,1.01523 18.51941,4.45957 26.27863,9.66368 5.36512,3.5984 10.35767,8.30909 14.25844,13.45349 6.33766,8.35821 10.59772,19.00991 11.7235,29.31297 1.29608,11.8616 -0.84141,23.43343 -6.27113,33.950408 -2.71054,5.25009 -5.9693,9.74296 -10.19422,14.05478 -9.98787,10.19331 -22.64969,16.30206 -36.71125,17.7115 -0.91317,0.0915 -1.76913,0.19946 -1.90215,0.23983 -0.16735,0.0508 -0.26434,0.0148 -0.31488,-0.11693 z"
     id="path838"
     inkscape:connector-curvature="0" />
  <path
     style="fill:#3d5aed;fill-opacity:1;stroke-width:0.11450382"
     d="m 427.32824,138.83113 c -17.24364,-1.25051 -32.86943,-9.80112 -43.27787,-23.68216 -6.76216,-9.01824 -10.58261,-19.104808 -11.57987,-30.572538 -0.17806,-2.04738 -0.18062,-7.66631 -0.004,-9.67558 1.11612,-12.72807 5.67686,-23.8106 13.85365,-33.66412 1.45889,-1.75806 5.45205,-5.74368 7.2299,-7.21626 6.49,-5.3756 13.64471,-9.15211 21.87023,-11.54388 3.75348,-1.09141 7.22816,-1.70279 12.05198,-2.12055 l 0.65883,-0.0571 -0.0291,14.33127 -0.0291,14.33128 -0.94304,0.13403 c -4.85723,0.69034 -9.70345,2.80556 -13.65619,5.96046 -1.21443,0.96931 -3.27099,3.0104 -4.23489,4.20304 -2.36689,2.92857 -4.43451,6.85246 -5.54503,10.52327 -0.94026,3.108 -1.31124,5.50792 -1.40187,9.0689 -0.10015,3.93479 0.37826,7.50768 1.45653,10.87787 3.59686,11.242118 12.49145,18.846288 23.83785,20.379488 l 0.5439,0.0735 v 14.36322 c 0,11.4249 -0.0293,14.35912 -0.14313,14.34321 -0.0787,-0.011 -0.375,-0.0368 -0.6584,-0.0574 z"
     id="path836"
     inkscape:connector-curvature="0" />
  <path
     style="fill:#000000;stroke-width:0.11450382"
     d="m 5.8742142,138.49113 c -0.7445724,-0.26375 -1.3656416,-0.96199 -1.6369363,-1.84034 -0.2596324,-0.84059 -0.2800915,-1.25039 -0.1124302,-2.25198 0.064468,-0.38512 0.3457647,-2.9674 0.6251043,-5.73839 0.4978391,-4.93846 1.114193,-10.97234 4.4680408,-43.740478 2.3748592,-23.20311 3.8000712,-37.12041 4.9776222,-48.60688 0.624374,-6.09047 1.096172,-10.22112 1.203219,-10.53435 0.270946,-0.79279 0.952571,-1.61285 1.665559,-2.00382 l 0.626447,-0.34351 14.420822,-0.0304 c 12.583583,-0.0265 14.496596,-0.008 15.015582,0.14254 0.76508,0.22241 1.657005,1.01365 2.041684,1.81119 0.158034,0.32765 3.017754,9.71595 6.354935,20.8629 3.337181,11.14695 8.080166,26.99141 10.539968,35.20992 2.459801,8.21852 4.503177,15.02004 4.540834,15.11451 0.04242,0.10641 0.132933,-0.0461 0.237903,-0.40076 0.154669,-0.52263 6.219729,-20.62956 12.002292,-39.79008 1.282919,-4.25096 3.856396,-12.77863 5.718836,-18.95039 1.862441,-6.17175 3.515823,-11.48723 3.674183,-11.81217 0.36998,-0.75917 1.030646,-1.43605 1.794447,-1.83848 l 0.605079,-0.31881 14.275405,-0.0304 14.2754,-0.0304 0.6665,0.24937 c 0.89759,0.33583 1.85928,1.28925 2.17827,2.15953 0.18019,0.49165 0.39775,2.30349 0.99668,8.30069 1.2748,12.76462 2.75774,27.24778 4.18552,40.87786 2.31082,22.05982 2.5738,24.59319 3.94616,38.015288 2.06041,20.15154 2.30239,22.78681 2.15648,23.48552 -0.18404,0.88137 -0.63147,1.5049 -1.34247,1.87083 l -0.56836,0.29251 -12.24798,0.0307 c -13.72252,0.0343 -12.92437,0.08 -13.87175,-0.79327 -0.82615,-0.76151 -0.90765,-1.08715 -1.41713,-5.66259 -0.25167,-2.26003 -0.84709,-7.56143 -1.32317,-11.7809 -0.47608,-4.21946 -1.09734,-9.73282 -1.38059,-12.25191 -3.09332,-27.511018 -3.68544,-32.628718 -3.75584,-32.461848 -0.0399,0.0945 -2.291574,7.84923 -5.003819,17.23282 -5.127644,17.740198 -5.398526,18.677248 -9.794036,33.880028 -1.602038,5.54098 -2.790704,9.45437 -2.958861,9.7413 -0.440829,0.75222 -1.283995,1.6244 -1.822264,1.88498 -0.486952,0.23572 -0.592479,0.23799 -11.068191,0.23799 H 60.186807 l -0.522793,-0.25044 c -0.654343,-0.31347 -1.719552,-1.38292 -1.97715,-1.98504 -0.107148,-0.25044 -2.178338,-7.30841 -4.602645,-15.68437 -2.424306,-8.37595 -6.207931,-21.437998 -8.408056,-29.026738 -2.200125,-7.58874 -4.144514,-14.29931 -4.320866,-14.91237 -0.176351,-0.61306 -0.335943,-1.09935 -0.354649,-1.08064 -0.01871,0.0187 -0.370894,3.01934 -0.782638,6.66809 -0.411744,3.64875 -0.901045,7.97378 -1.087336,9.61118 -0.319398,2.80737 -0.861831,7.61381 -2.926918,25.935138 -2.245641,19.92318 -2.049856,18.36271 -2.391509,19.06103 -0.351498,0.71843 -0.816577,1.12248 -1.661671,1.44358 -0.560395,0.21293 -1.000111,0.22027 -12.688064,0.21155 -10.4080817,-0.008 -12.17503,-0.0329 -12.5882978,-0.17934 z"
     id="path834"
     inkscape:connector-curvature="0" />
  <path
     style="fill:#000000;stroke-width:0.11450382"
     d="m 215.86914,23.370342 -10.80664,0.0312 -10.80664,0.0293 -0.77344,0.36719 c -0.78896,0.37373 -1.93299,1.34356 -2.20117,1.86523 -0.0814,0.1583 -1.85972,4.71874 -3.95117,10.13477 -2.09145,5.41604 -6.54921,16.9576 -9.90625,25.64844 -3.35702,8.69084 -7.10804,18.40364 -8.33594,21.58398 -1.22789,3.18035 -3.68538,9.54331 -5.46094,14.14063 -5.84816,15.142168 -10.13723,26.247338 -12.52148,32.421888 -1.2923,3.34668 -2.40742,6.30042 -2.47852,6.56445 -0.29074,1.07971 0.25014,1.88524 1.58789,2.36329 0.32872,0.11746 2.98527,0.15029 12.86328,0.15429 12.24203,0.005 12.45833,4.6e-4 13.07032,-0.22851 0.7771,-0.29076 1.53394,-0.94705 1.92773,-1.67188 0.16612,-0.30578 0.68842,-1.58811 1.16016,-2.84766 0.47174,-1.25954 1.43486,-3.78304 2.13867,-5.60937 0.7038,-1.82634 1.65572,-4.32664 2.11719,-5.55469 0.46148,-1.22805 0.87437,-2.32321 0.91797,-2.43359 0.0752,-0.19035 1.14087,-0.19938 20.68945,-0.17188 l 20.60937,0.0293 2.08985,5.55469 c 2.9384,7.80195 4.04462,10.63517 4.35547,11.16406 0.37583,0.63943 0.9341,1.14413 1.60547,1.45313 l 0.57226,0.26367 12.53711,0.0312 c 11.53887,0.0282 12.58595,0.0153 13.15625,-0.16407 1.22065,-0.38393 1.8819,-1.39682 1.64844,-2.52343 -0.0627,-0.30241 -3.19327,-8.48512 -6.95703,-18.1836 -3.76377,-9.69847 -8.30014,-21.394878 -10.08203,-25.992198 -19.20675,-49.5538 -24.03322,-61.94248 -24.91993,-63.97071 -1.01544,-2.3227 -1.05005,-2.38319 -1.8164,-3.12304 -0.45242,-0.43678 -1.04501,-0.87564 -1.40625,-1.04102 z m -10.75,36.3711 1.80078,5.375 c 7.18929,21.45979 10.01025,29.9546 9.96485,30 -0.10742,0.10746 -23.60157,0.051 -23.60157,-0.0566 0,-0.0594 0.31386,-0.9728 0.69727,-2.03125 1.09894,-3.03366 3.04636,-8.8727 5.03711,-15.09375 2.09773,-6.5554 4.33627,-13.28801 5.38281,-16.19532 z"
     id="path832"
     inkscape:connector-curvature="0" />
  <path
     style="fill:#000000;stroke-width:0.11450382"
     d="m 277.61523,23.430892 -0.46093,0.24609 c -0.65434,0.35048 -1.07557,0.80536 -1.41797,1.5293 l -0.29688,0.62891 v 55.24805 c 0,46.500478 0.0241,55.319358 0.15625,55.693368 0.27639,0.78251 1.09579,1.53371 1.96094,1.79688 v -0.002 c 0.15785,0.048 5.93172,0.0926 12.83203,0.0976 14.1607,0.0111 13.34654,0.0597 14.25195,-0.8457 0.92107,-0.92101 0.85547,0.64905 0.85547,-20.57617 V 98.374152 l 12.79493,-0.002 c 13.61736,-0.001 14.15581,-0.0184 17.10742,-0.57422 7.4911,-1.41073 14.8912,-5.8544 20.09961,-12.07031 4.91375,-5.86425 8.03719,-13.44668 8.74414,-21.22852 0.17443,-1.92017 0.0781,-6.68465 -0.16992,-8.43359 -1.02279,-7.21247 -3.8487,-13.77739 -8.38086,-19.4668 -1.20177,-1.50862 -4.2975,-4.63882 -5.65235,-5.71484 -4.87063,-3.86822 -10.52222,-6.30895 -16.77539,-7.2461 -1.29306,-0.19383 -2.97392,-0.20703 -28.51172,-0.20703 z m 27.88086,24.55274 9.18946,0.0351 c 9.12773,0.0355 9.19554,0.0371 10.10547,0.29297 4.47438,1.25842 7.75759,4.98281 8.84179,10.02539 0.2792,1.29868 0.27147,4.11721 -0.0156,5.45703 -1.04867,4.89399 -4.03931,8.31077 -8.48438,9.69531 l -1.02929,0.32032 -9.30469,0.0352 -9.30274,0.0352 v -12.94922 z"
     id="path828"
     inkscape:connector-curvature="0" />
  <path
     style="fill:#3d5aed;fill-opacity:1;stroke-width:0.11450382"
     d="m 526.01706,138.52143 c -0.66112,-0.23625 -1.19779,-0.61335 -1.75522,-1.23335 -0.95109,-1.05785 -0.86489,3.3762 -0.86489,-44.488148 v -42.7464 h -13.44857 c -13.8714,0 -14.17164,-0.009 -15.06803,-0.46247 -0.57729,-0.29191 -1.29627,-1.11545 -1.55144,-1.77707 -0.20906,-0.54206 -0.21822,-1.01743 -0.21822,-11.32916 v -10.76336 l 0.25321,-0.47341 c 0.3584,-0.67009 0.90466,-1.1781 1.6354,-1.5209 l 0.63047,-0.29577 h 42.82443 42.82443 l 0.72231,0.33352 c 0.87026,0.40182 1.52789,1.10204 1.81921,1.93703 0.19317,0.55365 0.20657,1.26046 0.20657,10.89739 0,9.60566 -0.0138,10.34033 -0.20353,10.82061 -0.29537,0.7478 -0.94709,1.65076 -1.43431,1.98724 -0.96035,0.66323 -0.55995,0.64635 -15.33219,0.64635 h -13.54404 l -0.0292,42.96756 -0.0292,42.967578 -0.32066,0.65297 c -0.41591,0.84695 -1.28654,1.63571 -2.05858,1.86498 -0.50354,0.14954 -2.20714,0.17222 -12.61292,0.16787 -9.53684,-0.004 -12.11661,-0.0357 -12.44498,-0.15306 z"
     id="path824"
     inkscape:connector-curvature="0" />
  <path
     style="fill:#3d5aed;fill-opacity:1;stroke-width:0.11450382"
     d="m 605.09303,138.47453 c -0.85582,-0.29784 -1.26432,-0.64339 -1.62222,-1.37221 l -0.32196,-0.65563 V 81.141322 25.835972 l 0.24473,-0.52928 c 0.35257,-0.76249 0.99978,-1.42764 1.62324,-1.66823 0.50572,-0.19515 1.24551,-0.20707 12.84818,-0.20707 h 12.31158 l 0.74186,0.36525 c 0.97511,0.48007 1.63075,1.05465 1.93007,1.69144 l 0.24309,0.51715 v 55.09293 c 0,41.894778 -0.0322,55.200618 -0.13465,55.542408 -0.19129,0.63845 -0.8949,1.38622 -1.60721,1.70809 l -0.60547,0.2736 -12.53816,0.0262 c -11.67827,0.0244 -12.57759,0.0125 -13.11308,-0.17389 z"
     id="path822"
     inkscape:connector-curvature="0" />
  <path
     style="fill:#3d5aed;fill-opacity:1;stroke-width:0.11450382"
     d="m 684.84766,23.397692 -25.82032,0.0332 -0.51562,0.24219 c -0.68208,0.31877 -1.1143,0.76729 -1.47656,1.5332 l -0.29883,0.62891 v 55.24805 c 0,53.215728 0.008,55.269178 0.20898,55.791028 0.25973,0.67313 1.06311,1.40452 1.78516,1.62695 0.4386,0.1351 2.5731,0.16293 12.88476,0.16993 11.00568,0.007 12.42924,-0.0123 13.01172,-0.17579 0.7779,-0.21826 1.39134,-0.69128 1.74024,-1.34375 l 0.25586,-0.47656 0.0566,-19.12109 0.0566,-19.123068 13.2832,-0.0723 c 7.30535,-0.0402 13.48833,-0.10694 13.74024,-0.14844 0.25191,-0.0415 0.99889,-0.1541 1.66015,-0.25 6.83664,-0.99141 13.80747,-4.58684 19.06641,-9.83399 5.37204,-5.36 8.99214,-12.27367 10.46094,-19.98046 0.64553,-3.38712 0.81763,-8.00257 0.42187,-11.2793 -0.95236,-7.88522 -4.04375,-15.01684 -9.13281,-21.06836 -1.1813,-1.40471 -3.92104,-4.06261 -5.24414,-5.08789 -5.55518,-4.30476 -11.77281,-6.71561 -18.63477,-7.22266 -1.16689,-0.0866 -9.66841,-0.11354 -27.50976,-0.0898 z m 1.83203,24.59375 8.95898,0.002 c 10.26074,0.002 10.12697,-0.008 12.17188,0.96094 3.17118,1.50221 5.50247,4.16566 6.62304,7.56836 1.92572,5.84761 -0.0775,12.3214 -4.78125,15.45117 -1.68159,1.1189 -3.18183,1.66841 -5.16796,1.89258 -1.13823,0.1285 -17.60304,0.16649 -17.72852,0.041 -0.0419,-0.042 -0.0762,-5.89017 -0.0762,-12.99609 z"
     id="path820"
     inkscape:connector-curvature="0" />
</svg>
